<?xml version="1.0" encoding="utf-8"?> <!-- Generator: IcoMoon --> <!DOCTYPE svg PUBLIC "-//W3C//DTD SVG 1.1//EN" "http://www.w3.org/Graphics/SVG/1.1/DTD/svg11.dtd"> <svg width="512" height="512" viewBox="0 0 512 512" data-tags="git, vcs" fill="#000000"><path d="M 470.943,218.623L 261.372,9.055c-12.064-12.072-31.638-12.072-43.717,0.00l-43.514,43.522l 55.201,55.205 c 12.83-4.334, 27.542-1.426, 37.765,8.80c 10.283,10.286, 13.167,25.126, 8.723,38.002l 53.207,53.202 c 12.876-4.438, 27.72-1.571, 38.004,8.729c 14.365,14.36, 14.365,37.644,0.00,52.02c-14.374,14.37-37.651,14.37-52.033,0.00 c-10.804-10.815-13.477-26.696-7.998-40.006l-49.626-49.626l0.00,130.581 c 3.499,1.733, 6.806,4.044, 9.724,6.952 c 14.365,14.365, 14.365,37.644,0.00,52.029c-14.365,14.36-37.658,14.36-52.013,0.00c-14.365-14.386-14.365-37.664,0.00-52.029 c 3.55-3.545, 7.663-6.229, 12.049-8.023L 227.144,176.628 c-4.386-1.796-8.488-4.458-12.049-8.03c-10.881-10.875-13.498-26.848-7.917-40.209 l-54.42-54.432L 9.053,217.653c-12.07,12.081-12.07,31.655,0.00,43.73l 209.581,209.565c 12.065,12.069, 31.633,12.069, 43.718,0.00 l 208.592-208.597C 483.019,250.277, 483.019,230.692, 470.943,218.623z" ></path></svg>