<?xml version="1.0" encoding="utf-8"?> <!-- Generator: IcoMoon --> <!DOCTYPE svg PUBLIC "-//W3C//DTD SVG 1.1//EN" "http://www.w3.org/Graphics/SVG/1.1/DTD/svg11.dtd"> <svg width="512" height="512" viewBox="0 0 512 512" data-tags="github, social, fork" fill="#000000"><path d="M 192.00,320.00c0.00-18.718, 1.099-19.844, 13.203-31.948L 352.00,141.254c 29.157-29.157, 31.843-44.204, 31.992-74.019L 384.00,67.235 L 384.00,0.00 l-64.00,0.00 l0.00,64.00 c0.00,18.718-1.099,19.843-13.202,31.948L 160.00,242.745c-29.156,29.157-31.842,44.204-31.991,74.019L 128.00,316.764 L 128.00,384.00 L 80.00,384.00 l 80.00,128.00l 79.282-128.00L 192.00,384.00 L 192.00,320.00 zM 384.00,384.00l0.00-67.236 l-0.008,0.00 c-0.149-29.813-2.835-44.861-31.992-74.019l-17.15-17.151l-45.255,45.253l 17.203,17.203 C 318.902,300.155, 320.00,301.281, 320.00,319.999l0.00,64.00 l-47.281,0.00 l 79.281,128.00l 80.00-128.00L 384.00,384.00L 384.00,384.00z" ></path></svg>