<?xml version="1.0" encoding="utf-8"?> <!-- Generator: IcoMoon --> <!DOCTYPE svg PUBLIC "-//W3C//DTD SVG 1.1//EN" "http://www.w3.org/Graphics/SVG/1.1/DTD/svg11.dtd"> <svg width="512" height="512" viewBox="0 0 512 512" data-tags="heart, like, love, bookmark" fill="#000000"><path d="M 376.00,64.00c 27.779,0.00, 53.896,10.818, 73.539,30.46c 40.549,40.55, 40.549,106.529, 0.017,147.061L 256.00,434.78L 62.46,241.54 c-40.549-40.55-40.549-106.529,0.00-147.079C 82.104,74.818, 108.22,64.00, 136.00,64.00c 27.779,0.00, 53.896,10.818, 73.538,30.459 c 7.288,7.289, 13.424,15.552, 18.237,24.561L 256.00,171.847l 28.224-52.826c 4.813-9.009, 10.949-17.272, 18.236-24.56 C 322.104,74.818, 348.221,64.00, 376.00,64.00 M 376.00,32.00c-34.806,0.00-69.611,13.277-96.167,39.833c-9.729,9.729-17.669,20.569-23.833,32.107 c-6.165-11.538-14.104-22.378-23.833-32.107C 205.611,45.278, 170.805,32.00, 136.00,32.00c-34.806,0.00-69.611,13.277-96.167,39.833 c-53.111,53.111-53.111,139.222,0.00,192.333L 256.00,480.00l 216.166-215.833c 53.111-53.111, 53.111-139.222,0.00-192.333 C 445.61,45.278, 410.805,32.00, 376.00,32.00L 376.00,32.00z" ></path></svg>