<?xml version="1.0" encoding="utf-8"?> <!-- Generator: IcoMoon --> <!DOCTYPE svg PUBLIC "-//W3C//DTD SVG 1.1//EN" "http://www.w3.org/Graphics/SVG/1.1/DTD/svg11.dtd"> <svg width="512" height="512" viewBox="0 0 512 512" data-tags="tree view, category, graph" fill="#000000"><path d="M 480.00,352.00l-51.741,0.00 L 308.546,152.478C 315.536,146.596, 320.00,137.795, 320.00,128.00L 320.00,64.00 c0.00-17.60-14.40-32.00-32.00-32.00l-64.00,0.00 c-17.60,0.00-32.00,14.40-32.00,32.00 l0.00,64.00 c0.00,9.795, 4.464,18.596, 11.455,24.478L 83.741,352.00L 32.00,352.00 c-17.60,0.00-32.00,14.40-32.00,32.00l0.00,64.00 c0.00,17.60, 14.40,32.00, 32.00,32.00l 64.00,0.00 c 17.60,0.00, 32.00-14.40, 32.00-32.00l0.00-64.00 c0.00-9.795-4.464-18.596-11.455-24.478L 236.26,160.00l 39.482,0.00 l 119.714,199.522C 388.465,365.404, 384.00,374.205, 384.00,384.00l0.00,64.00 c0.00,17.60, 14.40,32.00, 32.00,32.00l 64.00,0.00 c 17.60,0.00, 32.00-14.40, 32.00-32.00l0.00-64.00 C 512.00,366.40, 497.60,352.00, 480.00,352.00z" ></path></svg>